<svg width="15" height="25" viewBox="0 0 15 25" fill="none" xmlns="http://www.w3.org/2000/svg">
<path d="M13.7219 6.81818C14.3998 6.81818 14.8518 6.36364 14.8518 5.68182V1.13636C14.8518 0.454545 14.3998 0 13.7219 0H10.3325C6.60405 0 3.55353 3.06818 3.55353 6.81818V9.09091H1.29388C0.615991 9.09091 0.164062 9.54545 0.164062 10.2273V14.7727C0.164062 15.4545 0.615991 15.9091 1.29388 15.9091H3.55353V23.8636C3.55353 24.5455 4.00546 25 4.68335 25H9.20264C9.88053 25 10.3325 24.5455 10.3325 23.8636V15.9091H12.5921C13.157 15.9091 13.6089 15.5682 13.7219 15L14.8518 10.4545C14.9647 10.1136 14.8518 9.77273 14.6258 9.43182C14.3998 9.09091 14.0609 9.09091 13.7219 9.09091H10.3325V6.81818H13.7219V6.81818ZM9.20264 11.3636H12.2532L11.6883 13.6364H9.20264C8.52475 13.6364 8.07282 14.0909 8.07282 14.7727V22.7273H5.81317V14.7727C5.81317 14.0909 5.36124 13.6364 4.68335 13.6364H2.42371V11.3636H4.68335C5.36124 11.3636 5.81317 10.9091 5.81317 10.2273V6.81818C5.81317 4.31818 7.84685 2.27273 10.3325 2.27273H12.5921V4.54545H10.3325C9.08966 4.54545 8.07282 5.56818 8.07282 6.81818V10.2273C8.07282 10.9091 8.52475 11.3636 9.20264 11.3636Z" fill="#F8F3F3"/>
</svg>
