<svg width="25" height="25" viewBox="0 0 25 25" fill="none" xmlns="http://www.w3.org/2000/svg">
<path d="M18.0772 0H6.77893C3.05052 0 0 3.06818 0 6.81818V18.1818C0 21.9318 3.05052 25 6.77893 25H18.0772C21.8056 25 24.8561 21.9318 24.8561 18.1818V6.81818C24.8561 3.06818 21.8056 0 18.0772 0ZM22.5964 18.1818C22.5964 20.6818 20.5628 22.7273 18.0772 22.7273H6.77893C4.29332 22.7273 2.25964 20.6818 2.25964 18.1818V6.81818C2.25964 4.31818 4.29332 2.27273 6.77893 2.27273H18.0772C20.5628 2.27273 22.5964 4.31818 22.5964 6.81818V18.1818Z" fill="#F8F3F3"/>
<path d="M13.3312 6.8182C12.7662 6.70456 12.2013 6.70456 11.6364 6.8182C8.5859 7.27274 6.43924 10.2273 6.89117 13.2955C7.11713 14.7727 7.90801 16.1364 9.15081 17.0455C10.1677 17.7273 11.2975 18.1818 12.5403 18.1818C12.7662 18.1818 13.1052 18.1818 13.3312 18.0682C14.7999 17.8409 16.1557 17.0455 17.0596 15.7955C17.9634 14.5455 18.3024 13.0682 18.0764 11.5909C17.7375 9.09093 15.8168 7.15911 13.3312 6.8182V6.8182ZM15.2519 14.4318C14.6869 15.1137 13.8961 15.6818 12.9922 15.7955C11.1845 16.0227 9.37678 14.7727 9.15081 12.9546C8.81186 11.1364 10.1677 9.3182 11.9754 9.09093C12.0883 9.09093 12.3143 9.09093 12.4273 9.09093C12.5403 9.09093 12.7662 9.09093 12.8792 9.09093C14.348 9.3182 15.4778 10.4546 15.7038 11.9318C15.9297 12.8409 15.7038 13.75 15.2519 14.4318Z" fill="#F8F3F3"/>
<path d="M17.8526 5.45459C17.6267 5.68186 17.5137 5.90913 17.5137 6.25004C17.5137 6.59095 17.6267 6.81822 17.8526 7.0455C18.0786 7.27277 18.4175 7.3864 18.6435 7.3864C18.9824 7.3864 19.2084 7.27277 19.4344 7.0455C19.6603 6.81822 19.7733 6.47731 19.7733 6.25004C19.7733 5.90913 19.6603 5.68186 19.4344 5.45459C18.9824 5.00004 18.3045 5.00004 17.8526 5.45459Z" fill="#F8F3F3"/>
</svg>
