<svg width="31" height="26" viewBox="0 0 31 26" fill="none" xmlns="http://www.w3.org/2000/svg">
<path d="M29.8809 0.808642C29.5062 0.557399 28.8817 0.557399 28.507 0.808642C27.6327 1.43675 26.6335 1.93924 25.6344 2.3161C23.1364 0.054913 19.2645 -0.0707087 16.6417 2.19048C15.018 3.57232 14.1437 5.45664 14.1437 7.46659C10.5216 7.21534 7.27429 5.33102 5.15102 2.3161C4.90122 1.93924 4.52652 1.81361 4.02693 1.81361C3.52734 1.81361 3.15264 2.19048 3.02774 2.56734C2.90284 2.69297 1.65386 5.70788 1.77876 9.35091C1.90366 12.4914 3.15264 16.5113 7.77388 19.4006C5.90041 20.28 3.77713 20.6569 1.65386 20.6569C1.15427 20.6569 0.529774 21.0337 0.404875 21.5362C0.279977 22.0387 0.529774 22.6668 1.02937 22.918C4.15183 24.6767 7.52408 25.5561 10.6465 25.5561C13.769 25.5561 16.7666 24.8024 19.5143 23.1693C24.885 20.1544 27.8825 14.3758 27.8825 7.46659C27.8825 7.21534 27.8825 7.08972 27.8825 6.83848C29.1315 5.45664 30.0058 3.82356 30.3805 2.06486C30.5054 1.56237 30.2556 1.05989 29.8809 0.808642V0.808642ZM25.6344 5.58226C25.3846 5.8335 25.2597 6.33599 25.2597 6.71286C25.3846 6.9641 25.3846 7.21534 25.3846 7.46659C25.3846 13.4964 22.7617 18.3957 18.2653 21.0337C14.7682 23.0437 10.6465 23.5461 6.5249 22.5412C8.14858 22.0387 9.64736 21.4106 11.0212 20.4056C11.5208 20.1544 11.6457 19.7775 11.6457 19.275C11.6457 18.7725 11.271 18.3957 10.8963 18.27C3.65223 15.0039 3.90203 8.84842 4.65142 5.70788C7.39919 8.47156 11.271 10.1046 15.3927 9.97902C16.0172 9.97902 16.6417 9.35091 16.6417 8.7228V7.46659C16.6417 6.21037 17.1413 4.95415 18.1405 4.0748C19.889 2.44172 22.7617 2.69297 24.2605 4.45167C24.6352 4.82853 25.1348 4.95415 25.5095 4.82853C25.7593 4.70291 26.134 4.70291 26.3837 4.57729C26.134 4.95415 25.8842 5.2054 25.6344 5.58226V5.58226Z" fill="#F8F3F3"/>
</svg>
